<?xml version="1.0" encoding="utf-8"?>
<!-- Generator: Adobe Illustrator 19.0.0, SVG Export Plug-In . SVG Version: 6.00 Build 0)  -->
<svg version="1.1" id="Layer_1" xmlns="http://www.w3.org/2000/svg" xmlns:xlink="http://www.w3.org/1999/xlink" x="0px" y="0px"
	 viewBox="-256 0 1024 2048" xml:space="preserve">
<g id="XMLID_1_">
	<path fill="#00b181" id="XMLID_5_" d="M499.3,406.8c-63.6-9.4-68.7-14.6-68.7-14.6c18.9-91.1-27.5-185.5-93.6-240.5
		c-88.5-73-222.5-19.8-327.3-130.6C-14.3-4.7-0.6,310.6,130.8,430.8c95.3,87.6,208.7,60.1,239.7,46.4c28.3-12.9,47.2-42.1,47.2-42.1
		c50.7,16.3,76.4,17.2,76.4,17.2C512.2,454,520.8,410.2,499.3,406.8L499.3,406.8z M386.8,415.4C291.5,387,208.1,315.7,154,260.8
		c-4.3-4.3,1.7-11.2,6.9-7.7c53.3,43.8,134,98.8,237.9,133.1C398.8,395.6,392.8,410.2,386.8,415.4z"/>
</g>
</svg>
